<?xml version="1.0" encoding="UTF-8"?>
<svg id="Capa_1" data-name="Capa 1" xmlns="http://www.w3.org/2000/svg" viewBox="0 0 98.6 80.93">
  <defs>
    <style>
      .cls-1 {
        fill: #452a9b;
      }
    </style>
  </defs>
  <path class="cls-1" d="m66.6,40.49c0-.47-.01-.97-.2-1.41-.1-.23-.22-.45-.34-.67-.03-.05-.06-.12-.1-.18-.02-.05-.03-.09-.04-.13-.11-.37-.26-.71-.39-1.08-.14-.42-.19-.87-.45-1.26-.04-.05-.1-.11-.15-.16,0-.01-.01-.03-.01-.04-.09-.25-.19-.51-.35-.73v-.12c.07-.04.16-.1.24-.2.35-.42.35-1.11.32-1.65-.04-.73-.13-1.45-.15-2.17-.04-1.05-.02-2.09-.01-3.14.02-2.13-.05-4.25.07-6.37.03-.55-.65-.58-.78-.12-.01,0-.02-.01-.03-.01-.37-.1-.71.19-1.03.36-.36.19-.74.34-1.11.5-.79.35-1.56.77-2.3,1.22-.76.46-1.56.93-2.27,1.49-.32.25-.61.54-.96.74-.31.17-.65.28-.96.45-.32.18-.49.44-.7.73-.38-.09-.76-.16-1.14-.23-.48-.09-.97-.19-1.46-.23-.39-.03-.77.02-1.16.05-.88.06-1.76.07-2.64.1-.94.03-1.86.05-2.79.26-.2.05-.4.1-.6.14-.05.01-.09.02-.14.03-.02,0-.02,0-.03,0-.05,0-.1.02-.15.03-.04-.04-.08-.08-.11-.12-.22-.32-.4-.59-.73-.77-.31-.18-.65-.28-.96-.45-.35-.19-.64-.48-.96-.74-.71-.57-1.51-1.03-2.27-1.49-.75-.45-1.51-.87-2.3-1.22-.37-.16-.75-.31-1.11-.5-.32-.17-.66-.46-1.03-.36-.01,0-.02.01-.03.01-.13-.46-.81-.43-.78.12.12,2.12.06,4.25.07,6.37,0,1.05.02,2.09-.01,3.14-.03.73-.11,1.45-.15,2.17-.03.54-.04,1.23.32,1.65v.02c-.04.07-.07.15-.11.22,0,0-.03.05-.06.09-.05.06-.1.12-.14.19-.34.45-.55.88-.75,1.4-.14.37-.24.75-.33,1.13-.09.38-.17.76-.21,1.14-.05.51-.05,1-.05,1.5,0,.84-.1,1.67-.01,2.52.1.9.29,1.8.48,2.68.19.86.6,1.66,1,2.44.37.7.74,1.41,1.18,2.06.51.74,1.13,1.4,1.75,2.05.61.64,1.24,1.24,1.99,1.73.65.43,1.37.73,2.06,1.07.82.41,1.66.71,2.54.97.41.12.81.23,1.23.28.28.04.56.06.84.09.1,0,.19.02.29.03.03,0,.09,0,.11.01.94.11,1.86.2,2.81.17.88-.03,1.77-.04,2.65-.06.88-.02,1.77-.04,2.65-.13.56-.06,1.04-.22,1.53-.49.15-.08.3-.18.44-.27.07-.04.14-.09.21-.13.03-.02.11-.05.11-.06.44-.16.87-.26,1.29-.48.36-.19.69-.41,1.05-.6.7-.37,1.36-.81,1.98-1.3.67-.52,1.26-1.15,1.81-1.79.31-.36.58-.74.84-1.13-.03.04.02-.03.04-.05.05-.06.11-.13.16-.19.16-.19.32-.39.47-.59.25-.34.46-.7.64-1.08.09-.2.17-.41.25-.62.02-.04.03-.08.05-.12,0,0,0,0,0,0,.05-.1.09-.2.14-.3.21-.41.42-.79.58-1.23.13-.37.2-.76.25-1.14.13-.92.18-1.86.18-2.79,0-.42-.03-.85-.03-1.27Z"/>
  <g>
    <path class="cls-1" d="m98.51,44.12c-.83-1.66-2.68-2.68-4.15-3.8-.9-.69-1.88-1.42-2.63-2.25-.69-.77-1-1.66-2.02-2.16-.54-.26-1.07-.3-1.58-.18-.72-.17-1.42,0-2.06.45-1.01.72-1.64,1.73-2.74,2.35-2.33,1.3-4.72,2.51-7.01,3.89-.6.36-.52,1.25.2,1.44,2.48.64,4.95,1.35,7.54,1.48-.25,6.26-3.13,12.38-6.63,17.65-3.16,4.76-7.34,9-12.59,11.84-2.88,1.56-6.06,2.65-9.3,3.42-2.24.53-4.57.68-6.91.7-1.25,0-2.5-.05-3.72-.08-3.18-.08-6.4-.56-9.47-1.45-.4-.13-.81-.24-1.21-.39-.06-.02-.11-.04-.17-.06-2.47-.9-4.81-2.08-6.92-3.57-2.07-1.46-3.85-3.22-5.43-5.12-1.04-1.3-1.98-2.67-2.87-4.06-.98-1.53-1.94-3.07-2.86-4.63-.97-1.64-1.8-3.37-1.96-5.25-.04-.46-.42-.7-.81-.74-.32-.26-.82-.28-1.13-.06-.52-.32-1.38-.13-1.32.6.31,3.63,2.67,6.66,4.64,9.69,1.17,1.8,2.42,3.56,3.79,5.23.82,1.04,1.67,2.05,2.62,2.99,3.1,3.07,6.99,5.22,11.21,6.59,3.15,1.09,6.48,1.76,9.81,2.08,1.91.18,3.82.2,5.74.21,1.2,0,2.4.02,3.6.02,1.41,0,2.82,0,4.21-.12,3.94-.33,7.91-1.51,11.52-2.97,6.26-2.53,11.48-6.78,15.51-11.83,2.3-2.88,4.23-6.03,5.8-9.3,1.72-3.56,2.98-7.32,3.25-11.21.75.05,1.5.08,2.25.06,1.11.03,2.21,0,3.28-.28.57-.14.73-.7.51-1.15Zm-10.36-6.65h-.06s.02-.02.03-.02c.01,0,.02.02.03.02Z"/>
    <path class="cls-1" d="m83.21,17.11c-1.17-1.8-2.42-3.56-3.79-5.23-.82-1.04-1.67-2.05-2.62-2.98-3.1-3.07-6.99-5.22-11.21-6.59-3.15-1.09-6.48-1.76-9.81-2.08-1.91-.18-3.82-.2-5.74-.21-1.2,0-2.4-.02-3.6-.02-1.41,0-2.82,0-4.21.12-3.94.33-7.91,1.51-11.52,2.97-6.26,2.53-11.48,6.78-15.51,11.83-2.3,2.88-4.23,6.03-5.8,9.3-1.72,3.56-2.98,7.32-3.25,11.21-.75-.05-1.5-.08-2.25-.06-1.11-.03-2.21,0-3.28.28-.57.14-.73.7-.51,1.15.83,1.66,2.68,2.68,4.15,3.8.9.69,1.88,1.42,2.63,2.25.69.77,1,1.66,2.02,2.16.54.26,1.07.3,1.58.18.72.17,1.42,0,2.06-.45,1.01-.72,1.64-1.73,2.74-2.35,2.33-1.3,4.72-2.51,7.01-3.89.6-.36.52-1.25-.2-1.44-2.48-.65-4.95-1.35-7.54-1.48.25-6.26,3.13-12.38,6.63-17.65,3.16-4.76,7.34-9,12.59-11.84,2.88-1.56,6.06-2.65,9.3-3.42,2.24-.53,4.57-.68,6.91-.7,1.25,0,2.5.05,3.72.08,3.18.08,6.4.56,9.47,1.45.4.13.81.24,1.2.39.06.02.11.04.17.06,2.47.9,4.8,2.08,6.92,3.57,2.07,1.46,3.85,3.22,5.43,5.12,1.04,1.3,1.98,2.67,2.87,4.06.98,1.53,1.94,3.07,2.86,4.63.97,1.64,1.8,3.37,1.96,5.25.04.46.42.7.81.74.32.26.82.28,1.13.06.52.32,1.38.13,1.32-.6-.32-3.63-2.67-6.66-4.64-9.69Z"/>
  </g>
</svg>