<?xml version="1.0" encoding="UTF-8"?>
<svg id="Capa_1" data-name="Capa 1" xmlns="http://www.w3.org/2000/svg" viewBox="0 0 98.6 82.17">
  <defs>
    <style>
      .cls-1 {
        fill: #452a9b;
      }
    </style>
  </defs>
  <path class="cls-1" d="m78.18,3.25c3.19,0,6.39.95,8.82,3.1,1.92,1.7,3.27,4.04,4.17,6.51,2.23,6.11,1.86,13.03-.04,19.27-1.9,6.23-5.24,11.86-8.9,17.15-7.02,10.15-16.29,18.5-25.08,27.02-1.1,1.07-2.2,2.14-3.29,3.22-.11-.08-.22-.16-.32-.24C35.99,65.98,11.9,53.77,7.94,29.1c-1.37-8.51.39-18.77,7.58-22.86,2.05-1.17,4.25-1.67,6.5-1.67,5.47,0,11.19,2.99,15.63,6.72,5.37,4.5,9.92,10.08,13.35,16.35,2.92-5.35,5.88-10.74,9.87-15.25,3.99-4.51,9.16-8.12,14.95-8.96.77-.11,1.56-.17,2.35-.17m0-2h0c-.87,0-1.76.06-2.63.19-7.26,1.05-12.8,5.81-16.16,9.61-3.36,3.8-5.99,8.16-8.43,12.53-3.29-5.25-7.32-9.89-12.01-13.83-3.2-2.68-9.65-7.19-16.92-7.19-2.71,0-5.23.65-7.49,1.93C6.04,9.33,4.61,20.94,5.97,29.41c3.4,21.16,21.09,33.57,36.7,44.51,3.4,2.38,6.61,4.64,9.67,6.96l.16.12.16.12,1.39,1.05,1.23-1.23c1.08-1.07,2.17-2.14,3.27-3.2,1.19-1.15,2.39-2.31,3.59-3.46,7.65-7.34,15.56-14.93,21.74-23.86,3.14-4.54,7.02-10.65,9.17-17.71,2.2-7.22,2.2-14.51,0-20.54-1.13-3.09-2.72-5.55-4.73-7.33-2.63-2.32-6.23-3.6-10.15-3.6h0Z"/>
  <path class="cls-1" d="m56.4,73.5c-.99.96-1.96,1.91-2.93,2.88-.1-.07-.19-.15-.29-.22-15.67-11.88-37.17-22.78-40.71-44.8-1.22-7.6.35-16.75,6.77-20.4,6.29-3.57,14.16-.19,19.75,4.51,4.79,4.02,8.86,9,11.92,14.59,2.61-4.77,5.25-9.59,8.81-13.61,3.56-4.03,8.18-7.25,13.35-8,3.49-.51,7.26.23,9.97,2.61,1.72,1.52,2.92,3.61,3.72,5.81,1.99,5.45,1.66,11.63-.03,17.2-1.7,5.56-4.68,10.59-7.94,15.31-6.27,9.06-14.54,16.51-22.39,24.12Z"/>
</svg>