<?xml version="1.0" encoding="utf-8"?>
<!-- Generator: Adobe Illustrator 27.1.0, SVG Export Plug-In . SVG Version: 6.00 Build 0)  -->
<svg version="1.1" id="Capa_1" xmlns="http://www.w3.org/2000/svg" xmlns:xlink="http://www.w3.org/1999/xlink" x="0px" y="0px"
	 viewBox="0 0 100 85" style="enable-background:new 0 0 100 85;" xml:space="preserve">
<style type="text/css">
	.st0{display:none;}
	.st1{display:inline;fill:#452A9B;}
	.st2{display:inline;}
	.st3{fill:#452A9B;}
</style>
<g class="st0">
	<path class="st1" d="M67.68,42.1c0-0.47-0.01-0.97-0.2-1.41c-0.1-0.23-0.22-0.45-0.34-0.67c-0.03-0.05-0.06-0.12-0.1-0.18
		c-0.02-0.05-0.03-0.09-0.04-0.13c-0.11-0.37-0.26-0.71-0.39-1.08c-0.14-0.42-0.19-0.87-0.45-1.26c-0.04-0.05-0.1-0.11-0.15-0.16
		c-0.01-0.01-0.01-0.03-0.01-0.04c-0.09-0.25-0.19-0.51-0.35-0.73l-0.01-0.12c0.09-0.04,0.18-0.1,0.26-0.2
		c0.35-0.42,0.35-1.11,0.32-1.65c-0.04-0.73-0.13-1.45-0.15-2.17c-0.04-1.05-0.02-2.09-0.01-3.14c0.02-2.13-0.05-4.25,0.07-6.37
		c0.03-0.55-0.65-0.58-0.78-0.12c-0.01,0-0.02-0.01-0.03-0.01c-0.37-0.1-0.71,0.19-1.03,0.36c-0.36,0.19-0.74,0.34-1.11,0.5
		c-0.79,0.35-1.56,0.77-2.3,1.22c-0.76,0.46-1.56,0.93-2.27,1.49c-0.32,0.25-0.61,0.54-0.96,0.74c-0.31,0.17-0.65,0.28-0.96,0.45
		c-0.32,0.18-0.49,0.44-0.7,0.73c-0.38-0.09-0.76-0.16-1.14-0.23c-0.48-0.09-0.97-0.19-1.46-0.23c-0.39-0.03-0.77,0.02-1.16,0.05
		c-0.88,0.06-1.76,0.07-2.64,0.1c-0.94,0.03-1.86,0.05-2.79,0.26c-0.2,0.05-0.4,0.1-0.6,0.14c-0.05,0.01-0.09,0.02-0.14,0.03
		c-0.02,0-0.02,0-0.03,0.01c-0.05,0.01-0.1,0.02-0.15,0.03c-0.04-0.04-0.08-0.08-0.11-0.12c-0.22-0.32-0.4-0.59-0.73-0.77
		c-0.31-0.18-0.65-0.28-0.96-0.45c-0.35-0.19-0.64-0.48-0.96-0.74c-0.71-0.57-1.51-1.03-2.27-1.49c-0.75-0.45-1.51-0.87-2.3-1.22
		c-0.37-0.16-0.75-0.31-1.11-0.5c-0.32-0.17-0.66-0.46-1.03-0.36c-0.01,0-0.02,0.01-0.03,0.01c-0.13-0.46-0.81-0.43-0.78,0.12
		c0.12,2.12,0.06,4.25,0.07,6.37c0.01,1.05,0.02,2.09-0.01,3.14c-0.03,0.73-0.11,1.45-0.15,2.17c-0.03,0.54-0.04,1.23,0.32,1.65
		l0,0.02c-0.04,0.07-0.07,0.15-0.11,0.22c0-0.01-0.03,0.05-0.06,0.09c-0.05,0.06-0.1,0.12-0.14,0.19c-0.34,0.45-0.55,0.88-0.75,1.4
		c-0.14,0.37-0.24,0.75-0.33,1.13c-0.09,0.38-0.17,0.76-0.21,1.14c-0.05,0.51-0.05,1-0.05,1.5c-0.01,0.84-0.1,1.67-0.01,2.52
		c0.1,0.9,0.29,1.8,0.48,2.68c0.19,0.86,0.6,1.66,1,2.44c0.37,0.7,0.74,1.41,1.18,2.06c0.51,0.74,1.13,1.4,1.75,2.05
		c0.61,0.64,1.24,1.24,1.99,1.73c0.65,0.43,1.37,0.73,2.06,1.07c0.82,0.41,1.66,0.71,2.54,0.97c0.41,0.12,0.81,0.23,1.23,0.28
		c0.28,0.04,0.56,0.06,0.84,0.09c0.1,0.01,0.19,0.02,0.29,0.03c0.03,0,0.09,0.01,0.11,0.01c0.94,0.11,1.86,0.2,2.81,0.17
		c0.88-0.03,1.77-0.04,2.65-0.06c0.88-0.02,1.77-0.04,2.65-0.13c0.56-0.06,1.04-0.22,1.53-0.49c0.15-0.08,0.3-0.18,0.44-0.27
		c0.07-0.04,0.14-0.09,0.21-0.13c0.03-0.02,0.11-0.05,0.11-0.06c0.44-0.16,0.87-0.26,1.29-0.48c0.36-0.19,0.69-0.41,1.05-0.6
		c0.7-0.37,1.36-0.81,1.98-1.3c0.67-0.52,1.26-1.15,1.81-1.79c0.31-0.36,0.58-0.74,0.84-1.13c-0.03,0.04,0.02-0.03,0.04-0.05
		c0.05-0.06,0.11-0.13,0.16-0.19c0.16-0.19,0.32-0.39,0.47-0.59c0.25-0.34,0.46-0.7,0.64-1.08c0.09-0.2,0.17-0.41,0.25-0.62
		c0.02-0.04,0.03-0.08,0.05-0.12c0,0,0,0,0,0c0.05-0.1,0.09-0.2,0.14-0.3c0.21-0.41,0.42-0.79,0.58-1.23
		c0.13-0.37,0.2-0.76,0.25-1.14c0.13-0.92,0.18-1.86,0.18-2.79C67.7,42.95,67.68,42.53,67.68,42.1z"/>
	<g class="st2">
		<path class="st3" d="M99.58,45.73c-0.83-1.66-2.68-2.68-4.15-3.8c-0.9-0.69-1.88-1.42-2.63-2.25c-0.69-0.77-1-1.66-2.02-2.16
			c-0.54-0.26-1.07-0.3-1.58-0.18c-0.72-0.17-1.42,0-2.06,0.45c-1.01,0.72-1.64,1.73-2.74,2.35c-2.33,1.3-4.72,2.51-7.01,3.89
			c-0.6,0.36-0.52,1.25,0.2,1.44c2.48,0.64,4.95,1.35,7.54,1.48c-0.25,6.26-3.13,12.38-6.63,17.65c-3.16,4.76-7.34,9-12.59,11.84
			c-2.88,1.56-6.06,2.65-9.3,3.42c-2.24,0.53-4.57,0.68-6.91,0.7c-1.25-0.01-2.5-0.05-3.72-0.08c-3.18-0.08-6.4-0.56-9.47-1.45
			c-0.4-0.13-0.81-0.24-1.21-0.39c-0.06-0.02-0.11-0.04-0.17-0.06c-2.47-0.9-4.81-2.08-6.92-3.57c-2.07-1.46-3.85-3.22-5.43-5.12
			c-1.04-1.3-1.98-2.67-2.87-4.06c-0.98-1.53-1.94-3.07-2.86-4.63c-0.97-1.64-1.8-3.37-1.96-5.25c-0.04-0.46-0.42-0.7-0.81-0.74
			c-0.32-0.26-0.82-0.28-1.13-0.06c-0.52-0.32-1.38-0.13-1.32,0.6c0.31,3.63,2.67,6.66,4.64,9.69c1.17,1.8,2.42,3.56,3.79,5.23
			c0.82,1.04,1.67,2.05,2.62,2.99c3.1,3.07,6.99,5.22,11.21,6.59c3.15,1.09,6.48,1.76,9.81,2.08c1.91,0.18,3.82,0.2,5.74,0.21
			c1.2,0,2.4,0.02,3.6,0.02c1.41,0.01,2.82-0.01,4.21-0.12c3.94-0.33,7.91-1.51,11.52-2.97c6.26-2.53,11.48-6.78,15.51-11.83
			c2.3-2.88,4.23-6.03,5.8-9.3c1.72-3.56,2.98-7.32,3.25-11.21c0.75,0.05,1.5,0.08,2.25,0.06c1.11,0.03,2.21-0.01,3.28-0.28
			C99.65,46.74,99.81,46.18,99.58,45.73z M89.22,39.08l-0.06-0.01c0.01-0.01,0.02-0.01,0.03-0.02
			C89.2,39.06,89.21,39.07,89.22,39.08z"/>
		<path class="st3" d="M84.29,18.72c-1.17-1.8-2.42-3.56-3.79-5.23c-0.82-1.04-1.67-2.05-2.62-2.98c-3.1-3.07-6.99-5.22-11.21-6.59
			c-3.15-1.09-6.48-1.76-9.81-2.08c-1.91-0.18-3.82-0.2-5.74-0.21c-1.2,0-2.4-0.02-3.6-0.02c-1.41-0.01-2.82,0.01-4.21,0.12
			c-3.94,0.33-7.91,1.51-11.52,2.97c-6.26,2.53-11.48,6.78-15.51,11.83c-2.3,2.88-4.23,6.03-5.8,9.3
			c-1.72,3.56-2.98,7.32-3.25,11.21c-0.75-0.05-1.5-0.08-2.25-0.06C3.86,36.95,2.76,37,1.68,37.26c-0.57,0.14-0.73,0.7-0.51,1.15
			c0.83,1.66,2.68,2.68,4.15,3.8c0.9,0.69,1.88,1.42,2.63,2.25c0.69,0.77,1,1.66,2.02,2.16c0.54,0.26,1.07,0.3,1.58,0.18
			c0.72,0.17,1.42,0,2.06-0.45c1.01-0.72,1.64-1.73,2.74-2.35c2.33-1.3,4.72-2.51,7.01-3.89c0.6-0.36,0.52-1.25-0.2-1.44
			c-2.48-0.65-4.95-1.35-7.54-1.48c0.25-6.26,3.13-12.38,6.63-17.65c3.16-4.76,7.34-9,12.59-11.84c2.88-1.56,6.06-2.65,9.3-3.42
			c2.24-0.53,4.57-0.68,6.91-0.7c1.25,0.01,2.5,0.05,3.72,0.08c3.18,0.08,6.4,0.56,9.47,1.45c0.4,0.13,0.81,0.24,1.2,0.39
			c0.06,0.02,0.11,0.04,0.17,0.06c2.47,0.9,4.8,2.08,6.92,3.57c2.07,1.46,3.85,3.22,5.43,5.12c1.04,1.3,1.98,2.67,2.87,4.06
			c0.98,1.53,1.94,3.07,2.86,4.63c0.97,1.64,1.8,3.37,1.96,5.25c0.04,0.46,0.42,0.7,0.81,0.74c0.32,0.26,0.82,0.28,1.13,0.06
			c0.52,0.32,1.38,0.13,1.32-0.6C88.61,24.78,86.25,21.75,84.29,18.72z"/>
	</g>
</g>
<g class="st0">
	<g class="st2">
		<path class="st3" d="M79.26,4.86c3.19,0,6.39,0.95,8.82,3.1c1.92,1.7,3.27,4.04,4.17,6.51c2.23,6.11,1.86,13.03-0.04,19.27
			c-1.9,6.23-5.24,11.86-8.9,17.15c-7.02,10.15-16.29,18.5-25.08,27.02c-1.1,1.07-2.2,2.14-3.29,3.22
			c-0.11-0.08-0.22-0.16-0.32-0.24C37.07,67.59,12.98,55.38,9.02,30.7c-1.37-8.51,0.39-18.77,7.58-22.86
			c2.05-1.17,4.25-1.67,6.5-1.67c5.47,0,11.19,2.99,15.63,6.72c5.37,4.5,9.92,10.08,13.35,16.35c2.92-5.35,5.88-10.74,9.87-15.25
			c3.99-4.51,9.16-8.12,14.95-8.96C77.69,4.92,78.47,4.86,79.26,4.86 M79.26,2.86L79.26,2.86c-0.87,0-1.76,0.06-2.63,0.19
			c-7.26,1.05-12.8,5.81-16.16,9.61c-3.36,3.8-5.99,8.16-8.43,12.53c-3.29-5.25-7.32-9.89-12.01-13.83
			c-3.2-2.68-9.65-7.19-16.92-7.19c-2.71,0-5.23,0.65-7.49,1.93c-8.5,4.83-9.93,16.44-8.57,24.91c3.4,21.16,21.09,33.57,36.7,44.51
			c3.4,2.38,6.61,4.64,9.67,6.96l0.16,0.12l0.16,0.12l1.39,1.05l1.23-1.23c1.08-1.07,2.17-2.14,3.27-3.2
			c1.19-1.15,2.39-2.31,3.59-3.46c7.65-7.34,15.56-14.93,21.74-23.86c3.14-4.54,7.02-10.65,9.17-17.71c2.2-7.22,2.2-14.51,0-20.54
			c-1.13-3.09-2.72-5.55-4.73-7.33C86.78,4.14,83.17,2.86,79.26,2.86L79.26,2.86z"/>
	</g>
	<path class="st1" d="M57.48,75.11c-0.99,0.96-1.96,1.91-2.93,2.88c-0.1-0.07-0.19-0.15-0.29-0.22
		c-15.67-11.88-37.17-22.78-40.71-44.8c-1.22-7.6,0.35-16.75,6.77-20.4c6.29-3.57,14.16-0.19,19.75,4.51
		c4.79,4.02,8.86,9,11.92,14.59c2.61-4.77,5.25-9.59,8.81-13.61c3.56-4.03,8.18-7.25,13.35-8c3.49-0.51,7.26,0.23,9.97,2.61
		c1.72,1.52,2.92,3.61,3.72,5.81c1.99,5.45,1.66,11.63-0.03,17.2c-1.7,5.56-4.68,10.59-7.94,15.31
		C73.6,60.04,65.33,67.5,57.48,75.11z"/>
</g>
<path class="st3" d="M86.01,71.03c-0.52-1.29-1.41-2.44-2.59-3.35c-0.47-0.36-0.92-0.62-1.29-0.83c0,0-0.04-0.02-0.04-0.02
	c-0.15-0.08-0.28-0.16-0.4-0.23c-0.1-0.11-0.36-0.4-0.79-0.99c-0.3-0.4-0.59-0.81-0.88-1.21c-0.94-1.31-1.9-2.66-3.09-3.95
	c-0.66-0.71-1.32-1.36-1.96-1.98c-0.87-0.85-1.62-1.57-2.28-2.38c-0.84-1.03-1.67-2.12-2.48-3.18l-0.05-0.07
	c-1.89-2.47-3.82-5.01-6.13-7.29c-0.31-0.3-0.61-0.6-0.92-0.9c-1.18-1.14-2.2-2.13-3.04-3.28c-0.1-0.14-0.21-0.29-0.32-0.43
	c1.58-1.63,3.21-3.25,4.8-4.82c1.88-1.87,4-3.97,6-6.06c1.02-1.07,2.04-2.15,3.06-3.23c1.12-1.18,2.23-2.37,3.36-3.54
	c2.17-2.27,4.44-4.77,6.33-7.7c0.9-1.4,1.2-3.21,0.82-4.95C83.73,8.86,82.7,7.4,81.29,6.6c-1.08-0.61-2.21-0.92-3.35-0.92
	c-0.41,0-0.81,0.04-1.21,0.12c-0.01,0-0.03,0-0.04,0c-0.5,0-0.99,0.17-1.4,0.48c-1.27,0.6-2.37,1.61-3.22,2.97
	c-0.32,0.52-0.55,1.02-0.73,1.42l-0.03,0.06c-0.06,0.14-0.12,0.27-0.17,0.37c-0.1,0.12-0.37,0.4-0.89,0.88
	c-0.36,0.32-0.72,0.64-1.08,0.96l0.76,1.09c-0.01,0.01-0.01,0.01-0.02,0.01l-0.77-1.07c-1.2,1.05-2.43,2.14-3.59,3.44
	c-0.64,0.72-1.22,1.45-1.77,2.15c-0.76,0.96-1.41,1.79-2.15,2.52c-0.97,0.96-2.03,1.96-2.97,2.83c-2.25,2.11-4.57,4.28-6.62,6.81
	c-0.27,0.34-0.54,0.67-0.8,1.01c-0.01,0.01-0.02,0.02-0.03,0.04c-1.21-1.36-2.4-2.72-3.56-4.04c-2.02-2.3-4.11-4.68-6.24-7.03
	l-1.77-1.94c-3.43-3.76-6.97-7.65-10.1-11.7c-1.11-1.45-2.65-2.24-4.33-2.24c0,0,0,0,0,0c0,0,0,0,0,0c-0.35,0-0.7,0.04-1.05,0.11
	c-2.11,0.43-3.93,2.11-4.63,4.27c-0.65,2.01-0.26,4.21,1.04,5.9c3.34,4.34,7.04,8.39,10.61,12.3l0.29,0.32
	c2.23,2.45,4.45,4.97,6.59,7.4c1.44,1.63,2.87,3.27,4.32,4.89l0.84,0.93c-0.52,0.57-1.04,1.14-1.55,1.7l-0.05,0.05l-0.84,0.92
	c-1.6,1.75-3.25,3.52-4.84,5.23l-0.04,0.04c-2.08,2.23-4.22,4.54-6.31,6.85l-1.74,1.94c-3.41,3.81-6.92,7.72-10.63,11.22
	c-2.38,2.25-2.63,5.95-0.58,8.6c1.15,1.48,2.85,2.37,4.56,2.37c1.36,0,2.66-0.54,3.74-1.56c3.96-3.74,7.62-7.82,11.16-11.77
	l0.29-0.32c2.22-2.47,4.5-4.93,6.7-7.3l0.07-0.08c1.45-1.56,2.9-3.13,4.34-4.7l2.17-2.38c0.53-0.58,1.06-1.16,1.59-1.74
	c0.7,0.81,1.45,1.67,2.2,2.54c1.77,2.07,3.57,4.3,5.17,6.26c1.77,2.18,3.58,4.41,5.43,6.58c0.96,1.12,1.93,2.24,2.9,3.36
	c1.07,1.24,2.14,2.47,3.2,3.72c2.04,2.39,4.3,4.9,6.99,7.04c0.96,0.76,2.12,1.16,3.36,1.16c0.37,0,0.74-0.04,1.1-0.11
	c1.55-0.3,2.91-1.25,3.73-2.59c0.84-1.37,1.25-2.89,1.2-4.4c0.01-0.03,0.01-0.06,0.02-0.09C86.76,72.6,86.54,71.69,86.01,71.03z"/>
</svg>
