<?xml version="1.0" encoding="UTF-8"?>
<svg id="Capa_1" data-name="Capa 1" xmlns="http://www.w3.org/2000/svg" xmlns:xlink="http://www.w3.org/1999/xlink" viewBox="0 0 498 398">
  <defs>
    <style>
      .cls-1 {
        stroke: #f63016;
      }

      .cls-1, .cls-2 {
        fill: none;
        stroke-miterlimit: 10;
        stroke-width: .25px;
      }

      .cls-2 {
        stroke: #b3c8d6;
      }

      .cls-3 {
        fill: #fffbf5;
      }

      .cls-4 {
        fill: #ebebeb;
        filter: url(#drop-shadow-1);
      }

      .cls-5 {
        fill: #fff5e6;
      }
    </style>
    <filter id="drop-shadow-1" filterUnits="userSpaceOnUse">
      <feOffset dx="0" dy="0"/>
      <feGaussianBlur result="blur" stdDeviation="4"/>
      <feFlood flood-color="#000" flood-opacity=".2"/>
      <feComposite in2="blur" operator="in"/>
      <feComposite in="SourceGraphic"/>
    </filter>
  </defs>
  <g>
    <path class="cls-4" d="m63.02,13.17c-25.65-.72-50.18-.72-50.18-.72l.25,23.82h11.77c.88-2.82,3.4-4.88,6.4-4.88,3.73,0,6.76,3.15,6.76,7.03s-3.03,7.03-6.76,7.03c-3.01,0-5.53-2.06-6.4-4.88h-11.72l.3,27.84h11.43c.88-2.82,3.4-4.88,6.4-4.88,3.73,0,6.76,3.15,6.76,7.03s-3.03,7.03-6.76,7.03c-3.01,0-5.53-2.06-6.4-4.88h-11.38l.29,27.84h11.09c.88-2.82,3.4-4.88,6.4-4.88,3.73,0,6.76,3.15,6.76,7.03s-3.03,7.03-6.76,7.03c-3.01,0-5.53-2.06-6.4-4.88h-11.03l.65,27.84h10.38c.88-2.82,3.4-4.88,6.4-4.88,3.73,0,6.76,3.15,6.76,7.03s-3.03,7.03-6.76,7.03c-3.01,0-5.53-2.06-6.4-4.88h-10.28l.28,12.18-.8,15.66h10.8c.88-2.82,3.4-4.88,6.4-4.88,3.73,0,6.76,3.15,6.76,7.03s-3.03,7.03-6.76,7.03c-3.01,0-5.53-2.06-6.4-4.88h-11.02l-1.24,24.26.12,3.58h12.14c.88-2.82,3.4-4.88,6.4-4.88,3.73,0,6.76,3.15,6.76,7.03s-3.03,7.03-6.76,7.03c-3.01,0-5.53-2.06-6.4-4.88h-12l.94,27.84h11.05c.88-2.82,3.4-4.88,6.4-4.88,3.73,0,6.76,3.15,6.76,7.03s-3.03,7.03-6.76,7.03c-3.01,0-5.53-2.06-6.4-4.88h-10.91l.4,11.74-.61,16.1h11.12c.88-2.82,3.4-4.88,6.4-4.88,3.73,0,6.76,3.15,6.76,7.03s-3.03,7.03-6.76,7.03c-3.01,0-5.53-2.06-6.4-4.88h-11.28l-.74,19.52.89,8.32h11.13c.88-2.82,3.4-4.88,6.4-4.88,3.73,0,6.76,3.15,6.76,7.03s-3.03,7.03-6.76,7.03c-3.01,0-5.53-2.06-6.4-4.88h-10.67l1.85,17.21-1.72,10.63h10.54c.88-2.82,3.4-4.88,6.4-4.88,3.73,0,6.76,3.15,6.76,7.03s-3.03,7.03-6.76,7.03c-3.01,0-5.53-2.06-6.4-4.88h-11.24l-.78,4.8v23.04h12.02c.88-2.82,3.4-4.88,6.4-4.88,3.73,0,6.76,3.15,6.76,7.03s-3.03,7.03-6.76,7.03c-3.01,0-5.53-2.06-6.4-4.88h-12.02v21.36s120.32-1.6,140.37-1.6,89.42,3.21,94.05,3.21,68.61-4.01,79.4-4.81c10.79-.8,25.44,0,41.63,0s30.84,2.23,46.25,2.23h33.15c9.25,0,30.07.98,30.07.98,0,0,1.2-7.48-.87-8.56-2.08-1.08-4.85-2.89-5.2-4.33-.35-1.44.35-5.77,2.08-6.49,1.73-.72,4.34-2.16,4.34-3.97s7.1-3.97,7.1-5.41-3.64-6.31-4.51-7.21c-.87-.9-4.16,1.08-4.85-1.08-.69-2.16.35-6.49,0-9.02-.35-2.52,2.77-6.13,1.39-6.85-1.39-.72-5.55-2.89-5.55-3.97s6.93-5.41,6.59-6.85c-.35-1.44-2.77-7.93-3.47-9.74-.69-1.8-.52-9.2-1.39-10.1-.87-.9-1.04-10.82-1.04-10.82,0,0,1.04-7.21,1.04-8.66s1.04-12.98,1.04-12.98c0,0-1.04-8.29-1.04-9.38s1.73-6.49,1.73-8.29,1.21-11.72,0-12.98c-1.21-1.26-3.12-7.93-2.08-9.02,1.04-1.08,4.51-3.61,4.51-6.13s0-6.49-2.77-8.65c-2.77-2.16-5.55-6.85-6.24-8.66-.69-1.8,1.04-4.69,1.04-5.77s4.16-6.13,4.85-7.93,1.73-10.82,1.39-12.98c-.35-2.16,2.25-9.92.69-11.54-1.56-1.62-2.43-5.77-3.12-7.93-.69-2.16,1.73-5.05,3.81-7.21,2.08-2.16,2.6-10.64,1.73-11.54-.87-.9-1.73-6.13-1.73-8.29s1.39-8.29-.69-10.46c-2.08-2.16-4.85-5.77-5.55-7.93-.69-2.16,1.39-5.41,2.08-7.93.69-2.52,2.08-7.57,1.39-10.1-.69-2.52,2.43-7.21,2.43-7.21,0,0-.69-6.85,1.39-7.57,2.08-.72,4.51-6.85,4.85-8.29.35-1.44-.35-3.97-3.12-6.13-2.77-2.16-5.37-2.7-6.24-4.69-.87-1.98-1.21-8.11-.35-9.02.87-.9,4.51-1.44,4.51-4.69s-1.39-11.18-3.12-12.26c-1.73-1.08-1.91-3.43.69-6.13,2.6-2.7,4.16-5.77,4.16-7.57s.35-2.52-3.47-5.05c-3.81-2.52-28.08-.72-42.63-.72s-24.96-.62-30.16-.62-14.9,2.43-33.62,2.43-44.02-1.8-62.39-.72c-18.37,1.08-102.6-2.52-138.3-3.61-35.7-1.08-80.41,1.08-106.06.36Z"/>
    <path class="cls-5" d="m467.09,370.73c0,1.92-2.63,3.46-4.38,4.23-1.75.77-2.45,5.38-2.1,6.92.06.28.23.58.44.88,8.43.29,16.71.68,16.71.68,0,0,1.2-7.48-.87-8.56-2.08-1.08-4.85-2.89-5.2-4.33-.18-.73-.08-2.21.28-3.58-2.1,1.22-4.88,2.56-4.88,3.76Z"/>
  </g>
  <g>
    <g>
      <line class="cls-2" x1="12.6" y1="371.32" x2="467" y2="371.32"/>
      <line class="cls-2" x1="12.6" y1="344.3" x2="469.31" y2="344.3"/>
      <line class="cls-2" x1="15.67" y1="317.27" x2="469.31" y2="317.27"/>
      <line class="cls-2" x1="35.63" y1="290.24" x2="469.31" y2="290.24"/>
      <line class="cls-2" x1="38.03" y1="263.22" x2="469.31" y2="263.22"/>
      <line class="cls-2" x1="36.14" y1="236.19" x2="469.31" y2="236.19"/>
      <line class="cls-2" x1="13.13" y1="209.17" x2="469.31" y2="209.17"/>
      <line class="cls-2" x1="13.2" y1="182.14" x2="469.31" y2="182.14"/>
      <line class="cls-2" x1="14.56" y1="155.12" x2="469.31" y2="155.12"/>
      <line class="cls-2" x1="14.36" y1="127.72" x2="469.31" y2="128.09"/>
      <line class="cls-2" x1="37.77" y1="101.07" x2="469.31" y2="101.07"/>
      <line class="cls-2" x1="37.13" y1="74.04" x2="469.31" y2="74.04"/>
      <line class="cls-2" x1="13.21" y1="47.01" x2="469.31" y2="47.01"/>
      <line class="cls-2" x1="12.92" y1="19.99" x2="469.31" y2="19.99"/>
    </g>
    <g>
      <line class="cls-2" x1="451.07" y1="382.49" x2="451.07" y2="14.93"/>
      <line class="cls-2" x1="424.05" y1="382.46" x2="424.05" y2="15.24"/>
      <line class="cls-2" x1="397.02" y1="381.73" x2="397.02" y2="15.27"/>
      <line class="cls-2" x1="369.99" y1="380.24" x2="369.99" y2="17.13"/>
      <line class="cls-2" x1="342.97" y1="379.9" x2="342.97" y2="16.5"/>
      <line class="cls-2" x1="315.94" y1="380.96" x2="315.94" y2="16.11"/>
      <line class="cls-2" x1="288.92" y1="382.67" x2="288.92" y2="16.55"/>
      <line class="cls-2" x1="261.89" y1="384.3" x2="261.89" y2="15.95"/>
      <line class="cls-2" x1="234.87" y1="384.6" x2="234.87" y2="15.09"/>
      <line class="cls-2" x1="207.84" y1="383.51" x2="207.84" y2="14.14"/>
      <line class="cls-2" x1="180.82" y1="382.5" x2="180.82" y2="13.19"/>
      <line class="cls-2" x1="153.79" y1="381.83" x2="153.79" y2="12.53"/>
      <line class="cls-2" x1="126.76" y1="382.04" x2="126.76" y2="12.63"/>
      <line class="cls-1" x1="99.74" y1="382.34" x2="99.74" y2="13.06"/>
      <line class="cls-2" x1="72.71" y1="382.67" x2="72.71" y2="13.31"/>
      <line class="cls-2" x1="45.69" y1="383.01" x2="45.69" y2="12.77"/>
    </g>
  </g>
  <path class="cls-3" d="m464.45,17.46c-2.62,2.88-2.45,5.38-.7,6.53,1.75,1.15,3.15,9.61,3.15,13.07s-1.65,4.35-2.53,5.31c-.87.96,2.99,4.77,3.87,6.88.87,2.11-3.04,6.14-.24,8.45,2.8,2.31,2.63,5.9,2.28,7.44-.35,1.54,1.55,7.23-.55,8-2.1.77,1.62,4.15,1.62,4.15,0,0-1.53,11.23-.83,13.92.7,2.69-7.83,4.67-8.53,7.36-.7,2.69,4.16,6.79,4.86,9.1.7,2.31-3.46,5.51-1.37,7.82,2.1,2.31.7,8.84.7,11.15s.87,7.88,1.75,8.84c.87.96.35,9.99-1.75,12.3-2.1,2.31.09,5.61.79,7.92.7,2.31-3.06,6.49-1.49,8.22,1.57,1.73-.24,8.53.11,10.84.35,2.31,2.73,11.83,2.03,13.75-.7,1.92-6.02,8.74-6.02,9.89s-1.75,4.23-1.05,6.15c.7,1.92,4.61,6.69,7.41,8.99,2.8,2.31,2.8,6.54,2.8,9.23s-4.37,7.45-5.42,8.6c-1.05,1.15.87,8.27,2.1,9.61,1.22,1.35-3.37,10.2-3.37,12.12s.64,6.84.64,7.99,2.25,8.05,2.74,12.33c.5,4.28-3.49,11.7-3.49,13.24s-2.69,8.34-2.69,8.34c0,0,1.69,9.65,2.57,10.61.87.96-.82,9.76-.12,11.68.7,1.92,3.15,8.84,3.5,10.38.35,1.54,2.49,5.86,2.49,7.01s-4.93,3.75-3.54,4.52c1.4.77-1.75,4.61-1.4,7.3.35,2.69-.7,7.3,0,9.61.7,2.31,4.02.19,4.9,1.15.74.81,3.43,4.59,4.27,6.69,1.73-.75,4.13-2.14,4.13-3.87s7.1-3.97,7.1-5.41-3.64-6.31-4.51-7.21c-.87-.9-4.16,1.08-4.85-1.08-.69-2.16.35-6.49,0-9.02-.35-2.52,2.77-6.13,1.39-6.85-1.39-.72-5.55-2.89-5.55-3.97s6.93-5.41,6.59-6.85c-.35-1.44-2.77-7.93-3.47-9.74-.69-1.8-.52-9.2-1.39-10.1-.87-.9-1.04-10.82-1.04-10.82,0,0,1.04-7.21,1.04-8.66s1.04-12.98,1.04-12.98c0,0-1.04-8.29-1.04-9.38s1.73-6.49,1.73-8.29,1.21-11.72,0-12.98c-1.21-1.26-3.12-7.93-2.08-9.02,1.04-1.08,4.51-3.61,4.51-6.13s0-6.49-2.77-8.65c-2.77-2.16-5.55-6.85-6.24-8.66-.69-1.8,1.04-4.69,1.04-5.77s4.16-6.13,4.85-7.93,1.73-10.82,1.39-12.98c-.35-2.16,2.25-9.92.69-11.54-1.56-1.62-2.43-5.77-3.12-7.93-.69-2.16,1.73-5.05,3.81-7.21,2.08-2.16,2.6-10.64,1.73-11.54-.87-.9-1.73-6.13-1.73-8.29s1.39-8.29-.69-10.46c-2.08-2.16-4.85-5.77-5.55-7.93-.69-2.16,1.39-5.41,2.08-7.93.69-2.52,2.08-7.57,1.39-10.1-.69-2.52,2.43-7.21,2.43-7.21,0,0-.69-6.85,1.39-7.57,2.08-.72,4.51-6.85,4.85-8.29.35-1.44-.35-3.97-3.12-6.13-2.77-2.16-5.37-2.7-6.24-4.69-.87-1.98-1.21-8.11-.35-9.02.87-.9,4.51-1.44,4.51-4.69s-1.39-11.18-3.12-12.26c-1.73-1.08-1.91-3.43.69-6.13,2.6-2.7,4.16-5.77,4.16-7.57s.35-2.52-3.47-5.05c-1.28-.85-4.91-1.2-9.67-1.31-.59.91-1.26,1.82-2.07,2.71Z"/>
</svg>