<?xml version="1.0" encoding="UTF-8"?>
<svg id="Capa_1" data-name="Capa 1" xmlns="http://www.w3.org/2000/svg" viewBox="0 0 128.54 175.36">
  <defs>
    <style>
      .cls-1 {
        fill: #fff;
      }

      .cls-2 {
        fill: #c398e7;
      }

      .cls-3 {
        fill: #fdd3f3;
      }

      .cls-4 {
        fill: #fef4ff;
      }

      .cls-5 {
        fill: #4c269f;
      }

      .cls-6 {
        fill: #fee4f7;
      }

      .cls-7 {
        fill: #d6b2f3;
      }
    </style>
  </defs>
  <path class="cls-1" d="m110.93,163.85c-1.23.29-2.48.3-3.72.05-9.78-2.01-18.66-7.77-25.67-16.65-.07-.09-.14-.18-.22-.27-.02.11-.05.23-.07.34-2.39,11.05-7.84,20.12-15.75,26.23-.99.77-2.12,1.3-3.36,1.59-3.19.74-6.48-.32-8.61-2.76-.42-.48-.78-1-1.07-1.56-3.48.44-6.88-1.21-8.65-4.3-1.54-2.69-1.5-5.9,0-8.52-3.88-1.1-7.06-3.73-9.08-7.68-1.91-3.74-2.77-7.83-3.36-11.33l-.18-1.08c-.61-3.56-1.28-7.49-1.22-11.56C12.81,116.35,2.27,97.47,3.32,77.74c.07-1.37.21-2.78.42-4.2-1.78-6.9-2.93-13.9-3.44-20.81-.34-4.66-.39-9.38-.17-14.01.03-.65.05-1.34.06-2.06.08-3.64.19-8.18,1.98-12.16,1.14-2.54,3.33-4.36,5.99-4.98.58-.14,1.19-.21,1.8-.23l.7-.02c1.1-.02,2.16.15,3.16.5,8.74,2.49,16.97,6.34,24.52,11.46,5.13-2.45,10.61-4.4,16.08-5.71l.65-.15c4.97-1.15,9.96-1.8,14.9-1.94,4.48-7.68,10.08-14.56,16.68-20.5.73-.75,1.6-1.37,2.56-1.81l.68-.31c.56-.26,1.14-.46,1.72-.59,2.66-.61,5.41.06,7.57,1.84,3.48,2.89,5.66,7.15,7.42,10.57.34.67.67,1.31.99,1.9,2.12,3.9,4.03,7.97,5.69,12.09,2.63,6.56,4.68,13.45,6.11,20.52,8.81,13.86,11.46,30.52,7.08,44.75-1.57,5.12-4.01,9.95-7.26,14.42.29.62.54,1.21.76,1.75,1.72,4.18,3.08,8.4,4.04,12.53l.13.54c.76,3.2,1.8,7.58.58,12.02-.82,3.01-2.38,5.53-4.56,7.46,2.32,1.72,3.66,4.49,3.46,7.46-.24,3.55-2.56,6.53-5.89,7.66-.02.62-.12,1.25-.28,1.87-.84,3.12-3.34,5.52-6.52,6.26Z"/>
  <g>
    <path class="cls-7" d="m106.19,29.45c-1.55-3.86-3.32-7.63-5.31-11.28-1.74-3.2-3.73-7.88-6.57-10.23-.37-.31-.77-.4-1.22-.2-.22.1-.44.2-.66.31-.17.08-.3.19-.38.31-9.33,8.3-16.46,18.63-20.96,30.27-.21.53.18,1.09.67,1.27,13.26,5.01,26.52,10.02,39.78,15.03.77.29,1.4-.49,1.29-1.2-1.3-8.32-3.5-16.45-6.63-24.28Z"/>
    <path class="cls-2" d="m99.8,30.99c-1-2.47-2.15-4.87-3.44-7.19-.99-1.77-2.15-4.4-3.72-5.7-.37-.31-.77-.4-1.22-.2-.13.06-.27.12-.4.19-.18.08-.31.2-.39.33-5.66,5.11-9.94,11.33-12.73,18.43-.21.53.18,1.09.67,1.27,8.03,3.03,16.06,6.07,24.09,9.1.77.29,1.4-.49,1.29-1.2-.82-5.16-2.18-10.18-4.15-15.02Z"/>
    <path class="cls-7" d="m43.49,45.01c-9.16-8.48-20.1-14.63-32.12-17.99-.13-.07-.29-.11-.48-.11-.24,0-.49.01-.73.02-.5.01-.81.27-1.01.71-1.45,3.22-1.21,7.98-1.38,11.45-.21,4.36-.16,8.73.16,13.09.61,8.4,2.21,16.68,4.7,24.72.21.68,1.12,1.11,1.69.51,9.72-10.32,19.43-20.64,29.15-30.97.36-.38.46-1.04.04-1.44Z"/>
    <path class="cls-2" d="m36.58,46.39c-5.62-5.16-12.2-8.86-19.52-10.97-.14-.08-.3-.12-.5-.12h-.44c-.5.02-.81.28-1.01.72-.84,1.86-.73,4.73-.84,6.76-.14,2.66-.12,5.32.07,7.98.36,5.21,1.34,10.32,2.87,15.32.21.69,1.12,1.11,1.69.51,5.88-6.25,11.77-12.5,17.65-18.75.36-.38.47-1.05.04-1.44Z"/>
  </g>
  <path class="cls-7" d="m112.55,50.62c-12.64-18.38-35.64-22.63-56.34-17.66-21.67,5.2-43.99,21.21-45.27,45.19-1.08,20.33,12.03,38.86,31.16,45.41,18.18,6.23,38.96,1.73,55.2-7.75,10.09-5.89,18.4-14.86,21.88-26.17,4.06-13.2.82-27.66-6.63-39.03Z"/>
  <g>
    <path class="cls-5" d="m53.81,76.9c.74,3.21-1.26,6.41-4.46,7.15-3.21.74-6.41-1.26-7.15-4.46s1.26-6.41,4.46-7.15c3.21-.74,6.41,1.26,7.15,4.46Z"/>
    <path class="cls-5" d="m87.43,69.13c.74,3.21-1.26,6.41-4.46,7.15-3.21.74-6.41-1.26-7.15-4.46-.74-3.21,1.26-6.41,4.46-7.15s6.41,1.26,7.15,4.46Z"/>
  </g>
  <path class="cls-2" d="m78.47,83.45c-.08-.05-.15-.1-.23-.15,0,0-.02,0-.03,0-.61.32-.52.72-.86,1.32-.87,1.53-2.75,2.15-4.42,2.08-3.41-.15-4.7-2.63-5.42-5.53-.1-.39-.5-.66-.89-.56-.08.02-.17.04-.25.06-.03,0-.06.03-.09.04-.03,0-.06,0-.09,0-.09.02-.17.04-.26.06-.4.09-.64.5-.56.89.62,2.93.57,5.7-2.44,7.35-1.35.74-3.06,1.01-4.46.29-.71-.36-.98-1-1.77-1.02-.01,0-.02,0-.03.01-.05.08-.09.16-.14.24-.09.15-.11.36-.02.52,2.93,5.05,9.33,1.71,11.02-2.94,3.55,3.43,10.77,3.63,11.19-2.2.01-.18-.09-.36-.24-.46Z"/>
  <path class="cls-1" d="m71.11,77.32c.45,1.95-3.5,4.52-4.52,4.76-1.02.24-5.7-.34-6.15-2.29-.45-1.95,1.47-2.85,4.78-3.62,3.31-.77,5.44-.79,5.89,1.15Z"/>
  <g>
    <path class="cls-2" d="m42.3,46.34c-2.32.7-3.47,3.89-3.84,6.1-.43,2.56.37,5.18,2.08,7.13,1.93,2.21,4.76,3.32,7.68,3.09,2.13-.16,5.41-1.01,5.56-3.53.03-.47-.36-.83-.81-.88-1.63-.16-2.59,1.07-4.16,1.43-2.32.53-4.71-.22-6.3-1.98-3.33-3.68-1.15-7.34-.15-11.3,0-.04-.02-.08-.07-.07h0Z"/>
    <path class="cls-2" d="m49.27,49.33c-1.47,6.73,1.31,12.82,8.5,13.55,3.4.35,7.02-.34,9.45-2.91,1.68-1.77,2.92-4.33,1.34-6.45-.45-.59-1.32-.33-1.69.17-.97,1.33-.97,3.03-2.21,4.23-1.87,1.82-4.89,2.06-7.36,1.73-5.51-.74-5.31-5.99-6.48-10.28-.19-.71-1.37-.88-1.55-.06h0Z"/>
    <path class="cls-2" d="m63.24,47.63c-.84,2.84,1.13,6.01,3.31,7.75,2.42,1.94,5.71,2.24,8.57,1.14,6.19-2.37,8.03-10.88,2.35-14.94-.74-.53-2.05.08-1.98,1.04.14,1.75,1.19,2.62,1.77,4.22,1.03,2.83-.71,5.6-3.26,6.72-5.57,2.44-7.37-2.92-10.64-5.96-.04-.04-.1-.03-.12.03h0Z"/>
  </g>
  <g>
    <path class="cls-6" d="m47.32,89.31c1.04,4.52-1.77,9.03-6.29,10.07-4.52,1.04-9.03-1.77-10.07-6.29-1.04-4.52,1.77-9.03,6.29-10.07,4.52-1.04,9.03,1.77,10.07,6.29Z"/>
    <path class="cls-6" d="m103.45,76.33c1.04,4.52-1.77,9.03-6.29,10.07-4.52,1.04-9.03-1.77-10.07-6.29-1.04-4.52,1.77-9.03,6.29-10.07,4.52-1.04,9.03,1.77,10.07,6.29Z"/>
  </g>
  <g>
    <g>
      <path class="cls-3" d="m71.48,125.91c-.2.11-.37.29-.46.57-4.05,13.12-10.98,25.06-20.4,35.05-.83.88.13,2.03,1.18,1.63,3.47-1.32,6.52-3.18,9.24-5.6-.15,3.05-.77,5.99-1.88,8.89-.4,1.04.94,1.6,1.67,1.04,6.95-5.37,11.12-13.32,12.96-21.81.98-4.52,1.37-9.14,1.42-13.76.04-3.64.11-4.02-2.68-6.01-.38-.27-.77-.22-1.05-.01Z"/>
      <path class="cls-3" d="m115.31,146.58c-12.85-4.84-24.32-12.52-33.72-22.54-.2-.21-.43-.3-.65-.31-.35-.07-.72.06-.95.47-1.63,3.01-1.42,3.28.23,6.58,2.08,4.13,4.45,8.11,7.32,11.74,5.38,6.82,12.62,12.13,21.22,13.9.9.19,1.86-.91,1.04-1.67-2.27-2.12-4.12-4.49-5.6-7.16,3.51.98,7.07,1.31,10.77.98,1.11-.1,1.49-1.55.34-1.98Z"/>
    </g>
    <path class="cls-6" d="m72.55,119.68c-4.56-2.26-9.41-3.67-14.48-4.16-6.22-.38-19.29.39-20.3,8.45-.56,4.48.39,9.33,1.13,13.74.51,3.04,1.22,6.36,2.63,9.13,3.72,7.29,12.64,3.36,17.58-.23,4.02-2.93,7.32-6.76,10.31-10.7,1.3-1.71,2.59-3.45,3.69-5.3.86-1.44,2.48-3.63,2.65-5.34.27-2.73-.99-4.48-3.23-5.59Z"/>
    <path class="cls-3" d="m74.33,120.62c-6.93-3.72-14.66-5.88-22.56-4.99-4.75.54-16.13,2.89-13.62,10.01.02.11.06.22.12.34,3.06,5.28,9.62,4.98,14.83,3.7,7.08-1.74,14.7-3.9,21.17-7.31.65-.34.73-1.39.05-1.75Z"/>
    <g>
      <path class="cls-3" d="m65.86,128.69c1.21,0,2.38-.73,3.41-1.29,1.24-.68,2.49-1.36,3.6-2.25.65-.52-.14-1.58-.85-1.17-1.25.72-2.41,1.6-3.62,2.38-.93.6-2.04,1.12-2.69,2.05-.08.12.01.29.15.29h0Z"/>
      <path class="cls-3" d="m67.85,131.79c.98-.06,1.85-.87,2.58-1.48.97-.81,1.83-1.66,2.61-2.65.59-.74-.66-1.77-1.29-1.06-.78.88-1.52,1.79-2.32,2.65-.62.66-1.53,1.36-1.79,2.24-.04.13.06.31.21.3h0Z"/>
    </g>
    <path class="cls-6" d="m116.58,122.32c-.9-3.84-2.17-7.72-3.67-11.37-1.78-4.33-3.59-7.08-8.52-7.03-5.46.06-10.69,1.77-15.41,4.45-3.94,2.42-7.39,5.43-10.32,9.01-2.04,2.49-2.79,3.57-1.61,6.62,1.01,2.62,4.74,4.46,7.11,5.8,4.15,2.34,8.57,4.46,13.12,5.88,6.11,1.9,17.81,3.74,20.08-4.55.75-2.75-.15-6.13-.78-8.81Z"/>
    <path class="cls-3" d="m94.69,105.7c-7.49,2.67-13.49,8.01-18.08,14.39-.45.63.09,1.53.82,1.55,7.31.22,15.11-1.18,22.23-2.73,5.24-1.14,11.27-3.74,11.7-9.84,0-.13,0-.25-.04-.36-.86-7.51-12.13-4.62-16.63-3.02Z"/>
    <g>
      <path class="cls-3" d="m87.78,123.29c-.99-.54-2.22-.52-3.32-.66-1.43-.17-2.86-.45-4.3-.55-.81-.05-1.07,1.24-.25,1.43,1.38.32,2.81.39,4.22.45,1.18.05,2.55.2,3.63-.34.12-.06.13-.26.01-.33h0Z"/>
      <path class="cls-3" d="m87.4,126.92c-.62-.67-1.76-.91-2.6-1.23-1.1-.42-2.16-.91-3.25-1.36-.87-.36-1.56,1.1-.7,1.52,1.13.55,2.29.93,3.51,1.24.92.23,2.06.57,2.97.19.14-.06.15-.26.06-.36h0Z"/>
    </g>
    <path class="cls-4" d="m81.63,119.42c-.71-1.32-1.5-2.75-3.05-3.03-1.93-.35-4.83.38-6.49,1.38-3.84,2.31-1.67,8.9-.09,11.99.9,1.77,2.13,2.68,4.15,2.63,1.78-.05,4.73-.75,6.13-1.95,2.59-2.23.54-8.44-.64-11.02Z"/>
  </g>
</svg>