<?xml version="1.0" encoding="utf-8"?>
<!-- Generator: Adobe Illustrator 27.1.0, SVG Export Plug-In . SVG Version: 6.00 Build 0)  -->
<svg version="1.1" id="Capa_1" xmlns="http://www.w3.org/2000/svg" xmlns:xlink="http://www.w3.org/1999/xlink" x="0px" y="0px"
	 viewBox="0 0 48 155" style="enable-background:new 0 0 48 155;" xml:space="preserve">
<style type="text/css">
	.st0{fill:#F6A6C9;}
	.st1{fill:#FFB6B0;}
</style>
<g>
	<g>
		<path class="st0" d="M7.79,145.54c0.04-0.01,0.04,0.02,0.03,0.07c0.56,1.65,3.27,3.73,3.82,4.66c0.98-1.66,2.45-3.2,3.67-4.66
			c0.63,0.61,2.6,4.62,2.98,5.47c0.74-1.64,1.59-3.45,2.62-4.94c0.98,0.53,3.67,4.14,4.12,4.93c0,0,0.92-3.52,2.45-5.2
			c0.91,0.73,3.48,5.25,3.48,5.25c0.31-0.08,3.41-4.5,3.92-5.07c1.3,1.28,1.92,3.21,2.82,4.77c1.15-0.75,2.38-2.63,3.09-3.8
			c0,0,2.09,3.55,3.01,4.57c0.07,0.08,0.17,0.21,0.28,0.38c0.08-0.04,0.14-0.09,0.17-0.13c1-2.08-0.12-128.14,0.19-148.66
			c-0.04,0-0.08,0-0.11,0c-1.66,1.36-3.35,2.86-4.54,3.72c-1.2-1.13-2.45-2.22-3.67-3.31C35.39,4.35,33.1,7.4,33.1,7.4
			c-0.4-0.04-2.87-2.8-4.07-3.39c-1.41,1.24-2.7,2.71-4.01,3.92c-0.74-1.17-0.58-2.58-1.37-3.62c-1.49,1.09-2.84,2.5-4.16,3.7
			c-0.6-1.87-1.81-2.85-2.72-4.96c-1.97,1.38-3.66,3.76-4.11,4.38c-0.67-1.22-1.62-2.3-2.09-3.61C9.79,4.5,8.66,6,7.98,6.24
			C7.07,5.23,5.89,3.59,4.66,1.78C3.26,34.65,3.72,136.81,4.45,151.34c0,0,0,0,0,0c1.19-2.01,3.25-5.23,3.36-5.73
			C7.81,145.58,7.79,145.56,7.79,145.54z"/>
	</g>
	<g>
		<g>
			<g>
				<g>
					<path class="st1" d="M26.5,134.28c0.01,0.02,0.02,0.05,0.03,0.07C26.54,134.29,26.53,134.26,26.5,134.28z"/>
				</g>
				<g>
					<path class="st1" d="M25.22,27.33c0.2-1.2,2.83-13.68,6.75-12.52c2.61,0.77,0.12,6.8-0.66,8.17c1.98-1.46,9.47-4.54,8.3,1.17
						C38.92,27.6,30.6,28.23,25.22,27.33z"/>
				</g>
				<g>
					<path class="st1" d="M20.66,38.92c2.01-1.6,10.64-5.09,12.52-2.18c2.14,3.33-3.26,4.77-5.48,4.12c2.78,0.05,5.84,5.02,2.05,6.2
						C26.11,48.2,20.62,41.4,20.66,38.92z"/>
				</g>
				<g>
					<path class="st1" d="M4.09,24.27c4.27,2.03,10.49,0.17,13.92-0.63c-1.14-3.98-6.02-13.49-11.82-11.39
						c-0.97,0.35-1.57,0.78-1.89,1.26c-0.01,0.59-0.03,1.18-0.04,1.78c0.79,1.65,3.48,3.25,5.34,3.49C8.06,18.47,5.97,18.47,4.18,19
						C4.15,20.7,4.12,22.46,4.09,24.27z"/>
				</g>
				<g>
					<path class="st1" d="M40.62,44.19c1.36,0.05,2.64,0.18,3.84,0.33c-0.01-2.6-0.02-5.14-0.03-7.6
						C42.95,39.32,41.96,42.33,40.62,44.19z"/>
				</g>
				<g>
					<path class="st1" d="M44.44,3.16c-0.04,0-0.08,0-0.11,0c-1.66,1.36-3.35,2.86-4.54,3.72c-1.2-1.13-2.45-2.22-3.67-3.31
						c-0.26,0.29-0.73,0.87-1.22,1.5c2.83,2.54,6.32,7.09,9.5,7.77C44.39,8.63,44.41,5.31,44.44,3.16z"/>
				</g>
				<g>
					<g>
						<path class="st1" d="M19.51,7.99c0.83,0.34,1.64,0.53,2.35,0.51c4.18-0.17,2.95-2.08,0.75-3.36
							C21.53,6.05,20.51,7.08,19.51,7.99z"/>
					</g>
					<g>
						<path class="st1" d="M16.77,3.04c-0.65,0.45-1.26,1.02-1.82,1.59c1.21,1.42,2.91,2.67,4.53,3.34
							C18.88,6.12,17.67,5.15,16.77,3.04z"/>
					</g>
				</g>
				<g>
					<path class="st1" d="M12.31,42.25c1.59-2.37-2.42-5.6-4.42-5.63c3.06-0.66,7.11-4.7,2.72-6.28c-2.08-0.75-4.43,0.2-6.63,1.54
						c-0.04,3.16-0.07,6.44-0.1,9.79C7.13,43.65,10.86,44.42,12.31,42.25z"/>
				</g>
				<g>
					<path class="st1" d="M29.21,59.84c1.81-1.71,7.06-8.25,10.28-6.99c3.47,1.36-0.88,6.36-3.38,6.67c2.5-2.05,9.41-1.48,7.19,3.18
						C41,67.57,30.8,63.87,29.21,59.84z"/>
				</g>
				<g>
					<path class="st1" d="M18.61,50.66c-3.25-0.85-10.92,0.02-12.4,3.75c-2.09,5.27,5.08,4.15,6.74,0.61
						c-0.41,3.02,0.68,7.99,4.6,8.13C18.44,60.13,18.08,56.87,18.61,50.66z"/>
				</g>
				<g>
					<path class="st1" d="M11.56,68c-1.52-1.64-5.26-0.81-7.79,0.42c0,2.34-0.01,4.68-0.01,7.02c1.86,2.26,4.39,4.14,6.08,3.43
						c2.77-1.18,0.04-5.76-1.88-6.19C10.31,72.49,13.87,70.49,11.56,68z"/>
				</g>
				<g>
					<path class="st1" d="M17.43,78.95c0.79-3.09,3.14-9.57,7.18-9.88c4.18-0.31,2.42,4.88,0.06,6.84c1.42-1.29,6.95-3.34,6.22,0.49
						C30.15,80.35,20.42,80.54,17.43,78.95z"/>
				</g>
				<g>
					<path class="st1" d="M37.89,72.88c-2.24,1.86,2.63,3.98,4.09,4.19c-2.57,0.62-6.21,4-3.4,6.34c1.69,1.41,3.85,0.53,6.02-0.91
						c-0.01-2.82-0.02-5.64-0.03-8.47C41.89,72.7,39.14,71.84,37.89,72.88z"/>
				</g>
				<g>
					<path class="st1" d="M23.36,117.61c0.2-1.2,2.83-13.68,6.75-12.52c2.61,0.77,0.12,6.8-0.66,8.17c1.98-1.46,9.47-4.54,8.3,1.17
						C37.05,117.88,28.74,118.51,23.36,117.61z"/>
				</g>
				<g>
					<path class="st1" d="M18.8,129.2c2.01-1.6,10.64-5.09,12.52-2.18c2.14,3.33-3.26,4.77-5.48,4.12c2.78,0.05,5.84,5.02,2.05,6.2
						C24.25,138.48,18.75,131.68,18.8,129.2z"/>
				</g>
				<g>
					<path class="st1" d="M3.88,115.14c4.1,1,9.26-0.52,12.26-1.22c-1.14-3.98-6.02-13.48-11.83-11.39
						c-0.19,0.07-0.34,0.15-0.51,0.23c0.01,1.52,0.01,3.02,0.02,4.5c1.16,0.93,2.71,1.65,3.91,1.8c-1.12-0.22-2.53-0.28-3.9-0.1
						C3.85,111.07,3.87,113.12,3.88,115.14z"/>
				</g>
				<g>
					<path class="st1" d="M38.75,134.47c2.17,0.08,4.14,0.36,5.89,0.59c0.02-3.13,0.03-6.61,0.03-10.37
						C41.83,126.95,40.64,131.85,38.75,134.47z"/>
				</g>
				<g>
					<path class="st1" d="M43.29,96.38c0.47-0.08,0.93-0.22,1.35-0.42c0-1.77-0.01-3.54-0.02-5.34c-3.26-0.91-11.78,1.15-13.78,3.19
						c3.6,1.46,9.32,11.22,13.81,9.08c0-1.91-0.01-3.84-0.01-5.79C44.23,96.74,43.77,96.49,43.29,96.38z"/>
				</g>
				<g>
					<path class="st1" d="M11.43,91.08c-0.24,3.33,5.28,7.82,8.56,7.69c5.29-0.22,1.72-5.26-1.32-6.25
						c2.94-0.27,4.37-2.45,5.04-5.99C19.67,85.77,15.69,87.63,11.43,91.08z"/>
				</g>
				<g>
					<path class="st1" d="M8.75,120.61c-1.52-0.55-3.18-0.19-4.82,0.56c0.04,4.26,0.08,8.23,0.12,11.82
						c2.64,1.12,5.24,1.26,6.4-0.47c1.59-2.37-2.42-5.6-4.42-5.63C9.09,126.23,13.14,122.2,8.75,120.61z"/>
				</g>
				<g>
					<g>
						<path class="st1" d="M37.71,150.8c0.63-0.41,1.27-1.16,1.85-1.94c-0.89-0.22-1.91-0.24-2.88-0.07
							C37.02,149.48,37.34,150.17,37.71,150.8z"/>
					</g>
					<g>
						<path class="st1" d="M30.96,151.11c0.31-0.08,3.41-4.5,3.92-5.07c0.72,0.71,1.23,1.63,1.7,2.57c2-1.65,3.54-4.5,1.05-5.47
							c-2.44-0.95-6.04,2.55-8.43,5.06C30.1,149.6,30.96,151.11,30.96,151.11z"/>
					</g>
				</g>
				<g>
					<path class="st1" d="M16.39,147.33c0.07-1.76,0.13-3.81,0.35-6.39c-3.25-0.85-10.92,0.02-12.4,3.75
						c-0.04,0.09-0.06,0.17-0.09,0.26c0.02,0.94,0.04,1.8,0.06,2.59c0.41,0.55,1.14,0.78,1.99,0.75c0.79-1.29,1.45-2.41,1.52-2.69
						c-0.01-0.02-0.02-0.05-0.03-0.07c0.04-0.01,0.04,0.02,0.03,0.07c0.2,0.58,0.67,1.22,1.21,1.84c0.88-0.52,1.64-1.26,2.05-2.15
						c-0.2,1.44-0.04,3.33,0.59,4.92c0.98-1.64,2.43-3.17,3.64-4.62C15.53,145.83,15.95,146.51,16.39,147.33z"/>
				</g>
				<g>
					<path class="st1" d="M6.11,83.05c-0.95-0.37-1.72-0.44-2.35-0.29c0,3.48,0.01,6.93,0.02,10.33
						C5.78,90.09,6.83,86.09,6.11,83.05z"/>
				</g>
			</g>
		</g>
	</g>
</g>
</svg>
