<?xml version="1.0" encoding="UTF-8"?>
<svg id="Capa_1" data-name="Capa 1" xmlns="http://www.w3.org/2000/svg" viewBox="0 0 47.71 94.11">
  <defs>
    <style>
      .cls-1 {
        fill: #feffed;
      }

      .cls-2 {
        fill: #f6a6c9;
      }
    </style>
  </defs>
  <path class="cls-2" d="m46.3,1.03C38.16,1.54,4.87-.62.07.18c.68,8.77-.43,88.76.05,90.42.82,2.86,4.05,3.38,6.08.4.18.13,2.14,2.16,2.26,2.16,1.8.1,1.14-1,2.44-1.29,2-.45.69-1.15,2.93-.23,1,.41,1.71,2.17,2.64,2.41,1.52.39,4.21-1.21,5.48-1.65,3.5-1.22,7.07-2.12,10.74-2.65,5.47-.8,8.59,1.98,13.97,1.03-.06-8.72,2.63-51.3-.36-89.74Z"/>
  <path class="cls-1" d="m46.18,10.52c-1.32-.32-2.85.82-2.44,2.39.46,1.75,2.36,1.51,3.34.57-.04-.85-.08-1.7-.13-2.55-.24-.2-.49-.34-.77-.41Z"/>
  <path class="cls-1" d="m47.17,32.25c-.26-.26-.57-.42-.88-.5-1.32-.32-2.85.82-2.44,2.39.56,2.14,3.28,1.32,3.82-.15,0-.34,0-.68-.01-1.02-.09-.24-.24-.48-.48-.72Z"/>
  <path class="cls-1" d="m47.29,53.49c-.26-.26-.57-.42-.88-.5-1.32-.32-2.85.82-2.44,2.39.51,1.96,2.83,1.43,3.63.21,0-.56.02-1.12.03-1.69-.09-.14-.2-.28-.34-.42Z"/>
  <path class="cls-1" d="m46.52,74.23c-1.32-.32-2.85.82-2.44,2.39.4,1.54,1.92,1.54,2.95.88.03-.96.06-1.95.1-2.98-.19-.13-.39-.24-.61-.29Z"/>
  <path class="cls-1" d="m35.83,21.12c-1.32-.32-2.85.82-2.44,2.39.76,2.92,5.57.33,3.32-1.89-.26-.26-.57-.42-.88-.5Z"/>
  <path class="cls-1" d="m35.94,42.36c-1.32-.32-2.85.82-2.44,2.39.76,2.92,5.57.33,3.32-1.89-.26-.26-.57-.42-.88-.5Z"/>
  <path class="cls-1" d="m36.06,63.6c-1.32-.32-2.85.82-2.44,2.39.76,2.92,5.57.33,3.32-1.89-.26-.26-.57-.42-.88-.5Z"/>
  <path class="cls-1" d="m36.18,84.84c-1.32-.32-2.85.82-2.44,2.39.76,2.92,5.57.33,3.32-1.89-.26-.26-.57-.42-.88-.5Z"/>
  <path class="cls-1" d="m37.03,1.02c-1.15-.03-2.35-.07-3.6-.11-.21.39-.3.85-.16,1.36.69,2.65,4.68.77,3.76-1.25Z"/>
  <path class="cls-1" d="m15.78.35s-.07-.05-.11-.08c-.82-.03-1.63-.06-2.42-.08-.62.43-1.02,1.17-.79,2.05.76,2.92,5.57.33,3.32-1.89Z"/>
  <path class="cls-1" d="m15.01,21.09c-1.32-.32-2.85.82-2.44,2.39.76,2.92,5.57.33,3.32-1.89-.26-.26-.57-.42-.88-.5Z"/>
  <path class="cls-1" d="m4.55,10.45c-1.32-.32-2.85.82-2.44,2.39.76,2.92,5.57.33,3.32-1.89-.26-.26-.57-.42-.88-.5Z"/>
  <path class="cls-1" d="m25.36,10.49c-1.32-.32-2.85.82-2.44,2.39.76,2.92,5.57.33,3.32-1.89-.26-.26-.57-.42-.88-.5Z"/>
  <path class="cls-1" d="m4.67,31.69c-1.32-.32-2.85.82-2.44,2.39.76,2.92,5.57.33,3.32-1.89-.26-.26-.57-.42-.88-.5Z"/>
  <path class="cls-1" d="m25.48,31.73c-1.32-.32-2.85.82-2.44,2.39.76,2.92,5.57.33,3.32-1.89-.26-.26-.57-.42-.88-.5Z"/>
  <path class="cls-1" d="m4.78,52.93c-1.32-.32-2.85.82-2.44,2.39.76,2.92,5.57.33,3.32-1.89-.26-.26-.57-.42-.88-.5Z"/>
  <path class="cls-1" d="m25.59,52.96c-1.32-.32-2.85.82-2.44,2.39.76,2.92,5.57.33,3.32-1.89-.26-.26-.57-.42-.88-.5Z"/>
  <path class="cls-1" d="m4.9,74.17c-1.32-.32-2.85.82-2.44,2.39.76,2.92,5.57.33,3.32-1.89-.26-.26-.57-.42-.88-.5Z"/>
  <path class="cls-1" d="m25.71,74.2c-1.32-.32-2.85.82-2.44,2.39.76,2.92,5.57.33,3.32-1.89-.26-.26-.57-.42-.88-.5Z"/>
  <path class="cls-1" d="m15.13,42.33c-1.32-.32-2.85.82-2.44,2.39.76,2.92,5.57.33,3.32-1.89-.26-.26-.57-.42-.88-.5Z"/>
  <path class="cls-1" d="m15.25,63.56c-1.32-.32-2.85.82-2.44,2.39.76,2.92,5.57.33,3.32-1.89-.26-.26-.57-.42-.88-.5Z"/>
  <path class="cls-1" d="m15.36,84.8c-1.32-.32-2.85.82-2.44,2.39.76,2.92,5.57.33,3.32-1.89-.26-.26-.57-.42-.88-.5Z"/>
</svg>